<?xml version="1.0" encoding="UTF-8"?><svg id="TEXTE" xmlns="http://www.w3.org/2000/svg" viewBox="0 0 104.54 22.58"><defs><style>.cls-1{fill:#dc3a15;stroke-width:0px;}</style></defs><path class="cls-1" d="m5.97,9.55c0-2.17,0-4.34,0-6.5,0-.86.37-1.47,1.1-1.9.08-.05.19-.07.29-.08.17-.01.35.01.52-.01.66-.09,1.35.58,1.54,1.1.13.37.19.74.19,1.13-.01,2.71,0,5.43-.01,8.14,0,1.62-.03,3.24-.08,4.86-.02.78-.35,1.4-1.13,1.71-.82.33-1.97-.15-2.22-.99-.12-.39-.18-.77-.18-1.18,0-2.1,0-4.19,0-6.29h0Z"/><path class="cls-1" d="m40.44,11.97c0-1.19.01-2.38,0-3.58,0-.47.15-.66.67-.66.4,0,.8.01,1.21,0,.4-.02.68.16.89.49.28.45.57.89.84,1.35.36.58.7,1.18,1.06,1.76.27.44.54.87.82,1.31.03.04.07.08.1.12.01-.04.04-.08.04-.12-.02-.79-.05-1.57-.07-2.36-.01-.69-.02-1.38,0-2.07,0-.3.16-.45.47-.46.4-.02.81-.02,1.21,0,.42.03.54.2.54.66,0,1.69,0,3.39,0,5.08,0,.7,0,1.41,0,2.11,0,.44-.07.5-.5.51-.55,0-1.09-.01-1.64,0-.29.01-.46-.12-.59-.34-.62-1.01-1.23-2.02-1.84-3.03-.31-.5-.62-.99-.93-1.48-.02-.03-.06-.06-.08-.08-.02.03-.06.07-.06.1,0,.13,0,.26,0,.39,0,1.26,0,2.53,0,3.79,0,.11,0,.23,0,.34,0,.19-.08.3-.28.3-.49,0-.98.01-1.46,0-.28,0-.34-.08-.34-.38,0-.66,0-1.32,0-1.98,0-.59,0-1.18,0-1.77Z"/><path class="cls-1" d="m93.14,11.94c0,1.18,0,2.36,0,3.53,0,.13,0,.26-.01.39,0,.15-.09.24-.25.24-.66,0-1.32,0-1.98,0-.2,0-.28-.15-.38-.31-.67-1.1-1.34-2.19-2.01-3.28-.22-.35-.44-.7-.66-1.05-.03-.04-.07-.08-.11-.12-.03.06-.09.11-.1.17-.02.13-.01.26-.01.39,0,1.16.01,2.33.02,3.49,0,.11,0,.23,0,.34-.02.31-.05.36-.35.37-.49.01-.98,0-1.46,0-.2,0-.29-.1-.29-.29,0-.1,0-.2,0-.3,0-2.37,0-4.74,0-7.11,0-.04,0-.09,0-.13.01-.47.08-.54.56-.55.43,0,.86,0,1.29,0,.37,0,.64.13.84.47.68,1.13,1.38,2.23,2.08,3.35.19.3.36.61.55.92.02.03.06.06.09.09.03-.04.08-.08.09-.12.01-.13.01-.26.01-.39,0-1.23-.01-2.47-.02-3.7,0-.51.08-.59.6-.6.32,0,.63,0,.95,0,.48,0,.56.08.56.55,0,.73,0,1.46,0,2.2,0,.49,0,.98,0,1.46Z"/><path class="cls-1" d="m95.19,11.94c0-1.12,0-2.24,0-3.36,0-.11,0-.23,0-.34.03-.34.17-.49.52-.5.37-.02.75,0,1.12,0,.37,0,.75.02,1.12,0,.67-.05,1.32.05,1.96.19.77.18,1.54.46,2.1,1.08.41.45.71.96.87,1.55,0,.03,0,.06.02.08.44.67.18,1.42.22,2.13,0,.05-.01.12-.04.17-.22.43-.43.86-.66,1.28-.4.72-1.04,1.15-1.77,1.48-.7.31-1.43.46-2.2.43-.9-.03-1.81,0-2.71,0-.48,0-.54-.06-.55-.55,0-1.21,0-2.41,0-3.62Zm2.23-.04c0,.65,0,1.29,0,1.94,0,.37.04.39.39.41.53.02,1.04-.05,1.56-.22.72-.24,1.19-.73,1.34-1.42.13-.55.12-1.14-.14-1.72-.29-.63-.8-.93-1.38-1.11-.39-.13-.82-.11-1.23-.14-.45-.02-.53.06-.53.5,0,.59,0,1.18,0,1.76Z"/><path class="cls-1" d="m20,11.25c0-1.69.02-3.39,0-5.08-.01-.75.31-1.25.95-1.59.57-.3,1.52-.15,1.95.33.37.42.58.89.58,1.47-.01,3.27,0,6.55-.01,9.82,0,.8-.35,1.39-1.07,1.76-.6.31-1.3.23-1.79-.23-.38-.35-.61-.76-.6-1.31.03-1.72,0-3.45,0-5.17h0Z"/><path class="cls-1" d="m68.2,11.94c0-1.13,0-2.27,0-3.4,0-.13,0-.26,0-.39.03-.26.15-.38.41-.41.13-.02.26,0,.39-.01.7,0,1.41.03,2.11,0,.6-.03,1.19.04,1.74.19.63.17,1.22.47,1.45,1.2.09.27.19.53.19.83,0,.68-.26,1.22-.83,1.6-.14.09-.17.14-.02.24.16.11.31.26.47.37.5.36.64.9.7,1.46.1.98-.63,1.94-1.56,2.28-.57.21-1.14.23-1.73.23-.92,0-1.84,0-2.76,0-.54,0-.58-.04-.58-.59,0-1.19,0-2.38,0-3.57Zm3.06.73c-.2,0-.36,0-.51,0-.31.01-.35.05-.36.35-.01.31-.01.63,0,.94.01.31.07.39.38.38.41-.01.83-.04,1.24-.11.3-.05.52-.25.58-.56.06-.31-.02-.57-.3-.79-.33-.26-.7-.2-1.03-.21Zm-.09-3.19s0,.04-.01.06c-.17,0-.34,0-.52,0-.15,0-.24.08-.25.24,0,.33,0,.66,0,.99,0,.16.11.23.25.23.43,0,.85.06,1.26-.15.24-.13.4-.28.44-.53.04-.29-.12-.51-.37-.62-.26-.11-.54-.15-.81-.22Z"/><path class="cls-1" d="m50.18,11.95c0-1.21,0-2.41,0-3.62,0-.47.1-.58.58-.6.36-.01.72-.01,1.08,0,.38.01.45.08.46.46,0,.67,0,1.35,0,2.02,0,.11,0,.23,0,.34,0,.06.03.11.04.16.06-.03.13-.04.17-.08.43-.48.86-.96,1.29-1.44.38-.43.75-.86,1.16-1.26.13-.13.36-.2.54-.21.59-.03,1.18-.01,1.77,0,.06,0,.12,0,.17.02.22.06.27.21.13.38-.23.26-.46.51-.7.76-.59.62-1.2,1.23-1.79,1.85-.23.24-.41.51-.63.76-.14.16-.03.26.06.37.4.48.8.96,1.21,1.45.64.77,1.29,1.53,1.93,2.3.06.08.12.16.18.24.11.14.04.21-.1.25-.1.02-.2.03-.3.03-.63,0-1.26,0-1.89,0-.25,0-.44-.09-.59-.28-.77-.97-1.55-1.94-2.33-2.91-.02-.02-.04-.04-.06-.06-.06-.05-.13-.1-.19-.15-.03.08-.07.15-.07.23,0,.34,0,.69,0,1.03,0,.57,0,1.15,0,1.72,0,.38-.04.41-.43.41-.42,0-.83,0-1.25,0-.4,0-.44-.04-.44-.46,0-1.23,0-2.47,0-3.7Z"/><path class="cls-1" d="m10.7,15.51c0-1.44,0-2.87,0-4.31,0-.75.48-1.27,1.16-1.55.83-.34,1.99.26,2.26,1.23.04.14.04.28.04.43,0,2.83,0,5.66,0,8.48,0,.82-.51,1.3-1.14,1.69-.5.02-1,.18-1.48-.18-.55-.42-.88-.87-.85-1.61.05-1.39.01-2.78.01-4.18h0Z"/><path class="cls-1" d="m83.23,16.11c-.27,0-.55,0-.82,0-.35-.01-.38-.05-.5-.36-.13-.33-.29-.65-.41-.99-.06-.16-.16-.22-.32-.22-.83,0-1.67,0-2.5,0-.17,0-.25.07-.31.23-.13.36-.31.71-.44,1.07-.07.2-.2.26-.39.26-.56,0-1.12,0-1.68,0-.27,0-.33-.08-.26-.36.06-.22.16-.43.25-.64.21-.53.42-1.06.64-1.58.24-.58.49-1.15.74-1.73.2-.46.41-.91.6-1.37.32-.76.62-1.53.93-2.3.1-.26.3-.38.57-.39.42-.01.83,0,1.25,0,.4,0,.58.28.71.59.31.73.61,1.47.91,2.21.39.96.78,1.93,1.18,2.88.26.63.56,1.25.83,1.87.06.14.08.3.14.45.12.29.1.34-.21.36-.3.02-.6,0-.9,0,0,0,0,0,0,0Zm-3.28-3.4s0,0,0,.01c.09,0,.17.01.26,0,.17-.02.33-.06.49-.09-.04-.13-.09-.26-.13-.38-.16-.48-.32-.97-.48-1.45-.02-.06-.07-.15-.12-.15-.06,0-.13.05-.17.1-.04.05-.06.13-.08.2-.14.37-.28.74-.42,1.12-.04.12-.04.26-.1.37-.11.22.03.26.18.27.19.02.37,0,.56,0Z"/><path class="cls-1" d="m62.68,14.54c-.4,0-.8,0-1.21,0-.18,0-.3.05-.37.23-.13.34-.3.68-.42,1.03-.07.22-.18.31-.4.31-.56,0-1.12,0-1.68,0-.27,0-.33-.09-.27-.36.06-.23.15-.46.24-.69.27-.64.56-1.28.83-1.92.33-.79.65-1.58.97-2.37.37-.89.75-1.78,1.12-2.67.1-.25.31-.34.54-.36.43-.02.86-.02,1.29,0,.41.01.57.33.71.65.37.88.75,1.75,1.11,2.64.18.45.33.91.52,1.36.18.45.39.89.57,1.33.19.46.37.92.56,1.38.1.24.19.48.3.71.09.2-.02.26-.18.29-.04,0-.09,0-.13,0-.56,0-1.12,0-1.68,0-.25,0-.39-.08-.46-.34-.1-.34-.28-.65-.4-.99-.07-.19-.19-.24-.36-.23-.4,0-.8,0-1.21,0h0Zm-.05-1.83c.11,0,.23,0,.34,0,.03,0,.06,0,.09,0,.38-.02.4-.04.32-.39-.03-.14-.06-.28-.11-.41-.13-.36-.27-.72-.41-1.07-.03-.08-.11-.15-.16-.22-.07.08-.17.14-.2.23-.15.37-.27.74-.42,1.11-.31.76-.31.75.52.76.01,0,.03,0,.04,0Z"/><path class="cls-1" d="m15.28,14.69c0-1.13,0-2.27,0-3.4,0-.78.79-1.8,1.86-1.76.7.03,1.37.59,1.56,1.26.11.38.13.76.13,1.15,0,1.94,0,3.87-.01,5.81,0,.37-.06.75-.2,1.09-.16.4-.49.68-.89.88-.7.34-1.31.12-1.83-.31-.38-.32-.62-.77-.62-1.32,0-1.13,0-2.27,0-3.4h0Z"/><path class="cls-1" d="m29.51,11.94c0-1.19,0-2.38,0-3.58,0-.53.1-.62.63-.64.36,0,.72-.01,1.08,0,.37.02.52.16.53.54.01.47,0,.95,0,1.42,0,1.28,0,2.56,0,3.84,0,.11,0,.23,0,.34.02.3.07.35.36.36.27.01.55,0,.82,0,.5,0,1.01,0,1.51,0,.35,0,.45.08.47.42.03.37.02.75.01,1.12,0,.23-.14.33-.37.33-.09,0-.17,0-.26,0-1.39,0-2.79,0-4.18,0-.06,0-.11,0-.17,0-.4-.02-.44-.05-.44-.46,0-1.24,0-2.47,0-3.71Z"/><path class="cls-1" d="m38.42,12.02c0,1.16,0,2.33,0,3.49,0,.11,0,.23,0,.34,0,.15-.1.24-.25.24-.55,0-1.09,0-1.64,0-.17,0-.26-.11-.28-.27-.02-.13-.02-.26-.02-.39,0-2.33,0-4.65,0-6.98,0-.1,0-.2,0-.3.03-.29.15-.42.44-.43.43-.02.86-.02,1.29,0,.37.02.46.13.46.53,0,1.25,0,2.5,0,3.75Z"/><path class="cls-1" d="m4.86,14.94c0,1-.79,1.71-1.75,1.74-.84.03-1.73-.81-1.73-1.7,0-.87.82-1.72,1.75-1.72,1.03,0,1.75.84,1.73,1.68Z"/></svg>