<?xml version="1.0" encoding="utf-8"?>
<!-- Generator: Adobe Adobe Illustrator 24.2.0, SVG Export Plug-In . SVG Version: 6.00 Build 0)  -->
<svg version="1.1" xmlns="http://www.w3.org/2000/svg" xmlns:xlink="http://www.w3.org/1999/xlink" x="0px" y="0px" width="315.5px"
	 height="88px" viewBox="0 0 315.5 88" style="enable-background:new 0 0 315.5 88;" xml:space="preserve">
<style type="text/css">
	.st0{fill:#FB4500;}
</style>
<g id="FOND">
</g>
<g id="Images">
</g>
<g id="Objets">
</g>
<g id="Texte">
	<g>
		<path fill="#F5AB9D" d="M39.51,72.34c-0.4-0.68-0.93-1.32-1.12-2.09c-0.21-0.88,0.04-1.82-0.17-2.7c-0.36-1.49-1.9-2.37-2.66-3.71
			c-1.03-1.82-0.47-4.26-1.59-6.03c-0.38-0.6-0.94-1.08-1.32-1.68c-0.38-0.6-0.56-1.43-0.13-2c0.45-0.61,1.34-0.66,1.95-1.09
			c1.02-0.73,1.01-2.23,1.6-3.34c0.45-0.84,1.25-1.43,1.87-2.16c1.19-1.42,1.64-3.42,1.17-5.21c-0.35-1.32-1.16-2.53-1.2-3.89
			c-0.04-1.25,0.57-2.46,0.46-3.7c-0.15-1.59-1.44-2.84-2.81-3.67c-1.37-0.82-2.91-1.4-4.11-2.46c-0.57-0.5-1.05-1.11-1.68-1.53
			c-0.97-0.65-2.19-0.81-3.36-0.78c-2.77,0.08-5.52,1.16-8.26,0.74c-1.36-0.21-2.78-0.78-4.07-0.27c-0.92,0.36-1.55,1.2-2.1,2.02
			c-0.88,1.32-1.7,2.83-1.48,4.4c0.14,0.94,0.64,1.85,0.51,2.79c-0.08,0.54-0.37,1.04-0.43,1.58c-0.12,1.06,0.66,2.02,0.79,3.08
			c0.19,1.47-0.87,2.84-0.92,4.32c-0.08,2.21,2.05,4.24,1.43,6.36c-0.16,0.53-0.47,0.99-0.66,1.51c-0.78,2.12,0.74,4.43,0.49,6.67
			c-0.16,1.48-1.09,2.83-1.09,4.31c0.01,1.26,0.68,2.42,0.8,3.67c0.13,1.45-0.49,2.85-0.39,4.3c0.05,0.65,0.3,1.17,0.28,1.79
			c-0.02,0.67-0.26,1.15,0.18,1.79c0.42,0.6,1.21,0.92,1.93,0.77c0.42-0.09,0.81-0.32,1.24-0.4c1.19-0.2,2.52,0.87,3.53,0.21
			c1.04-0.67,0.53-2.28,0.81-3.48c0.17-0.7,0.64-1.3,0.78-2.01c0.34-1.71-1.3-3.18-1.52-4.91c-0.22-1.72,1.01-3.34,0.99-5.08
			c-0.01-1-0.44-1.95-0.44-2.95s0.7-2.14,1.68-2.03c0.45,0.05,0.83,0.35,1.24,0.53c0.64,0.28,1.4,0.26,2.02-0.05
			c0.24-0.12,0.48-0.29,0.75-0.29c0.52-0.02,0.87,0.55,0.93,1.06c0.05,0.51-0.08,1.04,0.01,1.55c0.2,1.19,1.46,1.88,2.07,2.93
			c0.93,1.6,0.18,3.7,0.77,5.45c0.58,1.74,2.37,2.83,3.03,4.54c0.63,1.63,0.2,3.69,1.37,4.98c0.74,0.81,1.95,1.06,3.03,0.88
			c1.08-0.18,2.07-0.74,2.99-1.33c0.47-0.3,0.96-0.64,1.18-1.15C40.21,73.88,39.92,73.03,39.51,72.34z M30.66,45.78
			c-0.47,0.49-1.1,0.87-1.78,0.85c-0.48-0.01-0.95-0.23-1.43-0.17c-0.9,0.1-1.42,1.02-2.13,1.58c-1.21,0.94-2.92,0.76-4.43,0.53
			c-0.54-0.08-1.1-0.17-1.56-0.46c-1.64-1.05-0.06-2.77-0.02-4.1c0.04-1.32-1.44-2.43-1.11-3.71c0.16-0.61,0.71-1.06,0.84-1.68
			c0.23-1.1-0.96-2.14-0.69-3.24c0.18-0.73,0.97-1.17,1.72-1.2c0.75-0.03,1.47,0.25,2.18,0.51c0.71,0.25,1.46,0.48,2.2,0.34
			c0.61-0.12,1.15-0.49,1.76-0.63c1.21-0.3,2.45,0.3,3.47,1.01c0.42,0.29,0.84,0.63,1.06,1.09c0.42,0.91-0.09,1.98,0,2.97
			c0.08,0.87,0.6,1.63,0.85,2.47C31.99,43.25,31.62,44.78,30.66,45.78z"/>
		<path fill="#F5AB9D" d="M55.7,27.18c-0.91-0.17-1.78-0.56-2.69-0.71c-1.51-0.26-3.04,0.12-4.52,0.5c-0.74,0.19-1.52,0.4-2.07,0.92
			c-0.91,0.87-0.93,2.31-0.64,3.54c0.29,1.22,0.82,2.41,0.81,3.66c-0.02,1.16-0.5,2.25-0.8,3.38c-0.39,1.46-0.46,3-0.21,4.5
			c0.23,1.38,0.74,2.73,0.69,4.14c-0.07,2.05-1.31,3.97-1.18,6.01c0.13,2.05,1.64,3.93,1.31,5.95c-0.18,1.08-0.88,2.08-0.79,3.18
			c0.07,0.85,0.62,1.62,0.61,2.47c-0.01,1.17-1.08,2.23-0.83,3.37c0.1,0.46,0.41,0.85,0.59,1.29c0.4,0.98,0.12,2.08-0.06,3.12
			s-0.21,2.25,0.54,3c0.72,0.73,1.9,0.73,2.9,0.49s1.97-0.67,2.99-0.65c1.54,0.03,2.93,1.08,4.47,1.04c1.4-0.04,2.65-0.97,4.05-1.02
			c1.01-0.04,1.98,0.39,2.95,0.69c0.97,0.3,2.09,0.45,2.95-0.09c0.95-0.59,1.26-1.8,1.5-2.89c0.14-0.62,0.27-1.26,0.18-1.9
			c-0.09-0.63-0.4-1.21-0.83-1.68c-0.83-0.93-2.09-1.45-3.33-1.37c-1.36,0.09-2.65,0.84-4.01,0.7c-0.97-0.1-1.88-0.67-2.86-0.64
			c-0.69,0.03-1.33,0.35-2,0.51c-0.67,0.16-1.48,0.12-1.91-0.43c-0.86-1.1,0.7-2.6,0.52-3.98c-0.1-0.73-0.7-1.35-0.72-2.09
			c-0.02-0.73,0.53-1.36,0.63-2.09c0.19-1.31-1.07-2.65-0.52-3.84c0.47-1.02,1.9-1.11,2.99-0.85c1.09,0.26,2.27,0.72,3.29,0.26
			c0.65-0.29,1.17-0.93,1.88-0.94c0.62-0.01,1.32,0.47,1.8,0.07c0.22-0.19,0.28-0.49,0.33-0.78c0.19-1.12,0.34-2.41-0.41-3.28
			c-0.27-0.32-0.65-0.54-0.91-0.87c-0.28-0.35-0.42-0.79-0.69-1.14c-0.65-0.83-1.87-0.95-2.92-0.79c-1.05,0.16-2.08,0.53-3.13,0.41
			s-2.14-0.98-1.99-2.03c0.06-0.41,0.29-0.78,0.42-1.17c0.26-0.76,0.12-1.64-0.36-2.28c-0.38-0.52-1.01-0.99-0.93-1.63
			c0.05-0.4,0.36-0.7,0.56-1.05c0.52-0.9,0.25-2.03,0.08-3.05c-0.17-1.03-0.12-2.28,0.74-2.85c1.26-0.84,2.88,0.5,4.39,0.45
			c0.98-0.04,1.84-0.66,2.81-0.85c1.17-0.22,2.35,0.22,3.54,0.3c1.05,0.07,2.15-0.15,2.97-0.8c0.83-0.64,1.33-1.75,1.11-2.77
			c-0.2-0.92-0.91-1.63-1.59-2.28c-0.71-0.68-1.45-1.38-2.38-1.69c-0.74-0.24-1.54-0.22-2.32-0.19c-1.29,0.04-2.78-0.12-4.04,0.14
			C57.59,26.82,56.92,27.41,55.7,27.18z"/>
		<path fill="#F5AB9D" d="M92.48,27.47c-1.63-0.11-3.17-1.31-4.77-0.94c-0.7,0.16-1.29,0.61-1.95,0.87c-1.44,0.57-3.07,0.23-4.56-0.19
			c-1.49-0.42-3.03-0.93-4.56-0.68c-1.53,0.25-3.02,1.59-2.82,3.12c0.05,0.42,0.23,0.82,0.25,1.24c0.04,0.65-0.28,1.28-0.26,1.92
			c0.04,1.07,1.03,1.92,2.08,2.15c1.05,0.24,2.13,0.01,3.18-0.22c1.05-0.23,2.14-0.46,3.18-0.22c0.59,0.13,1.21,0.48,1.37,1.07
			c0.14,0.51-0.1,1.04-0.3,1.53c-0.56,1.36-0.84,2.88-0.52,4.32c0.36,1.62,1.46,3.07,1.47,4.72c0.01,1.97-1.52,3.64-1.84,5.59
			c-0.48,2.95,1.88,5.66,1.95,8.65c0.06,2.51-1.51,4.8-1.68,7.31c-0.1,1.48,0.3,2.94,0.38,4.41c0.07,1.38,0.05,3.08,1.27,3.72
			c1.15,0.61,2.53-0.26,3.83-0.21c0.71,0.03,1.42,0.33,2.12,0.18c1.28-0.27,1.78-1.88,1.6-3.17c-0.18-1.29-0.8-2.52-0.78-3.83
			c0.02-1.66,1.08-3.15,1.3-4.8c0.29-2.12-0.79-4.15-1.33-6.22c-0.51-1.96-0.52-4.05-0.03-6.02c0.34-1.39,0.93-2.81,0.56-4.19
			c-0.13-0.49-0.38-0.96-0.4-1.47c-0.02-0.72,0.45-1.35,0.7-2.02c0.82-2.17-0.55-4.56-0.38-6.87c0.07-0.91,0.48-1.9,1.33-2.22
			c1.34-0.5,2.76,0.93,4.17,0.67c0.97-0.18,1.66-1.11,2.63-1.32c0.36-0.08,0.74-0.05,1.1-0.14c1.44-0.35,1.82-2.24,1.58-3.7
			c-0.33-2.02-1.59-3.64-3.73-3.79c-0.97-0.07-1.95-0.05-2.9,0.16C94.65,27.15,93.59,27.55,92.48,27.47z"/>
		<path fill="#F5AB9D" d="M128.77,53.01c0.49-0.38,1.1-0.56,1.69-0.76c1.34-0.45,2.78-1.15,3.29-2.47c0.42-1.11,0.08-2.38,0.39-3.52
			c0.26-0.95,0.93-1.72,1.36-2.6c0.65-1.34,0.69-2.96,0.12-4.34c-0.62-1.48-1.91-2.69-2.13-4.28c-0.13-0.99,0.17-2.01-0.05-2.98
			c-0.32-1.39-1.65-2.33-2.99-2.81c-1.34-0.48-2.79-0.65-4.09-1.24c-1.19-0.53-2.23-1.4-3.47-1.79c-3-0.94-6.18,1.11-9.31,0.76
			c-1.69-0.19-3.5-1.06-5-0.25c-1.26,0.68-1.7,2.34-1.45,3.75c0.27,1.5,1.15,3.04,0.55,4.44c-0.21,0.49-0.6,0.9-0.77,1.41
			c-0.54,1.55,1.02,3.03,1.24,4.66c0.3,2.2-1.88,4.29-1.28,6.43c0.23,0.83,0.87,1.52,0.99,2.37c0.14,0.99-0.42,1.91-0.72,2.86
			c-0.42,1.34-0.31,2.83,0.31,4.09c0.26,0.52,0.6,1.03,0.61,1.6c0.01,0.68-0.46,1.26-0.76,1.88c-0.52,1.05-0.57,2.33-0.12,3.41
			c0.32,0.77,0.88,1.49,0.89,2.32c0,0.82-0.52,1.52-0.84,2.27c-0.29,0.68-0.39,1.44-0.32,2.18c0.07,0.72,0.51,1.28,0.63,1.94
			c0.12,0.67-0.12,1.12,0.27,1.79c0.32,0.55,0.83,1,1.36,1.33c1.28,0.79,2.98,1.23,4.27,0.46c1.01-0.6,1.51-1.78,1.94-2.87
			c0.32-0.8,0.64-1.63,0.57-2.49c-0.11-1.4-1.24-2.61-1.15-4.01c0.09-1.5,1.57-2.72,1.42-4.22c-0.1-1.02-0.93-1.82-1.13-2.82
			c-0.24-1.22,0.65-2.55,1.87-2.78c0.27-0.05,0.56-0.06,0.81-0.18c0.29-0.14,0.49-0.4,0.75-0.58c0.84-0.57,2.03-0.07,2.69,0.7
			c1.86,2.19,0.91,5.76,2.55,8.11c0.61,0.87,1.54,1.52,1.92,2.51c0.44,1.13,0.03,2.42,0.25,3.62c0.26,1.41,1.35,2.53,2.52,3.36
			c1.09,0.77,2.36,1.4,3.69,1.3c1.33-0.1,2.64-1.17,2.62-2.5c-0.01-1-0.73-1.87-0.8-2.87c-0.07-0.96,0.46-1.9,0.28-2.84
			c-0.23-1.16-1.41-1.83-2.1-2.78c-1.74-2.41-0.23-6.4-2.46-8.36c-0.57-0.5-1.38-0.86-1.57-1.6
			C127.93,54.03,128.28,53.39,128.77,53.01z M126.8,43.6c-0.28,0.31-0.6,0.58-0.85,0.91c-0.43,0.59-0.59,1.32-0.95,1.96
			c-0.62,1.13-1.87,1.88-3.16,1.89c-0.55,0.01-1.09-0.11-1.64-0.04c-0.81,0.1-1.52,0.6-2.32,0.78c-1.14,0.26-2.85-0.27-3.36-1.42
			c-0.56-1.27,0.88-2.32,1.06-3.49c0.19-1.25-1-2.37-0.93-3.63c0.05-0.91,0.76-1.77,0.53-2.65c-0.1-0.39-0.38-0.72-0.44-1.12
			c-0.07-0.44,0.15-0.89,0.46-1.21c0.53-0.54,1.29-0.76,2.04-0.83c0.75-0.07,1.5,0,2.25-0.04c1.14-0.07,2.26-0.39,3.4-0.36
			c1.14,0.03,2.39,0.55,2.79,1.61c0.14,0.36,0.17,0.75,0.32,1.1c0.2,0.47,0.6,0.81,0.92,1.21C128.15,39.77,128.09,42.15,126.8,43.6z
			"/>
		<path fill="#F5AB9D" d="M174.63,50.15c0.48-1.17,1.29-2.29,1.22-3.55c-0.1-1.7-1.76-2.94-2.09-4.62c-0.37-1.88,1.03-3.82,0.54-5.67
			c-0.64-2.41-3.84-2.96-5.53-4.79c-1.21-1.31-1.8-3.42-3.53-3.87c-1.42-0.37-3.1,0.59-4.3-0.26c-0.28-0.19-0.49-0.47-0.79-0.62
			c-1.08-0.55-2.2,0.75-3.4,0.89c-1.18,0.14-2.25-0.88-3.45-0.83c-1.84,0.08-2.62,2.42-4.19,3.39c-1.25,0.78-3.06,0.71-3.89,1.92
			c-0.95,1.4-0.49,2.98-1.99,4.07c-1.5,1.09-2.33,2.69-2.5,4.53c-0.18,1.91,0.26,3.82,0.6,5.71c0.33,1.89,0.56,3.88-0.04,5.7
			c-0.39,1.17-1.11,2.34-0.88,3.55c0.17,0.87,0.82,1.59,1.04,2.45c0.35,1.34-0.38,2.69-0.55,4.06c-0.25,2.1,0.99,4.29,2.92,5.15
			c0.57,0.26,1.25,0.45,1.56,0.99c0.23,0.4,0.19,0.89,0.23,1.35c0.19,2.14,2.21,3.82,4.35,4.06c0.66,0.08,1.35,0.04,1.98,0.26
			c0.86,0.3,1.49,1.03,2.3,1.46c2.36,1.27,5.21-0.35,7.88-0.26c1.62,0.05,3.48,0.67,4.71-0.39c0.58-0.5,0.84-1.27,1.18-1.96
			c0.66-1.35,1.69-2.53,2.94-3.36c1.14-0.75,2.54-1.32,3.07-2.58c0.69-1.62-0.46-3.57,0.17-5.21c0.31-0.8,1.01-1.41,1.3-2.22
			c0.53-1.51-0.52-3.06-1.02-4.58C173.96,53.39,174.01,51.66,174.63,50.15z M167.65,59.75c-0.26,1.04-1.21,1.79-1.58,2.8
			c-0.46,1.23-0.11,2.86-1.16,3.65c-0.53,0.4-1.25,0.42-1.92,0.48c-1.11,0.1-2.21,0.37-3.24,0.81c-1.49,0.63-3.1,1.63-4.61,1.05
			c-1.22-0.46-1.86-1.77-2.84-2.64c-1.13-1-2.82-1.52-3.35-2.92c-0.55-1.44,0.52-2.96,0.07-4.38c-0.18-0.55-0.56-0.93-0.68-1.54
			c-0.15-0.77-0.14-1.57,0.04-2.33c0.28-1.18,0.95-2.32,0.76-3.51c-0.2-1.31-1.4-2.35-1.43-3.68c-0.04-1.78,2.01-3.07,2-4.85
			c-0.01-0.93-0.6-1.87-0.31-2.75c0.13-0.41,0.44-0.74,0.73-1.06c0.83-0.88,1.65-1.77,2.48-2.65c1.02-1.09,2.28-2.27,3.75-2.06
			c0.74,0.1,1.38,0.55,2.07,0.82c0.97,0.38,2.04,0.4,3.08,0.44c1.04,0.04,2.12,0.12,3.05,0.59c0.93,0.47,1.69,1.44,1.6,2.47
			c-0.05,0.55-0.31,1.05-0.48,1.57c-0.29,0.9-0.27,1.9,0.05,2.79c0.51,1.42,1.74,2.55,1.95,4.04c0.23,1.55-0.71,3.01-1.14,4.52
			c-0.42,1.46-0.37,3.05,0.15,4.48C167.15,57.16,167.98,58.44,167.65,59.75z"/>
		<path fill="#F5AB9D" d="M155.35,22.16c0.41-0.36,0.73-0.89,1.27-1c0.52-0.11,1.01,0.22,1.53,0.32c0.61,0.12,1.27-0.11,1.68-0.58
			c0.28-0.33,0.45-0.76,0.78-1.04c0.39-0.32,0.94-0.36,1.44-0.43c0.97-0.14,1.93-0.45,2.72-1.03c0.78-0.59,1.37-1.47,1.47-2.45
			c0.08-0.88-0.24-1.76-0.74-2.49c-0.42-0.61-0.99-1.15-1.69-1.4c-0.7-0.25-1.54-0.19-2.11,0.28c-0.35,0.29-0.6,0.71-1.01,0.91
			c-0.49,0.25-1.08,0.11-1.63,0.12c-1.07,0.02-2.11,0.68-2.59,1.64c-0.28,0.57-0.38,1.23-0.79,1.72c-0.38,0.47-0.97,0.69-1.5,0.98
			c-0.69,0.38-1.32,0.92-1.7,1.62c-0.37,0.69-0.66,2.12-0.06,2.76C153.12,22.86,154.6,22.81,155.35,22.16z"/>
		<path fill="#F5AB9D" d="M213.15,38.97c-0.82-1.33-2.07-2.61-1.93-4.17c0.06-0.72,0.43-1.42,0.32-2.13c-0.1-0.65-0.58-1.18-1.07-1.61
			c-1.35-1.17-3.03-1.97-4.79-2.26c-1.33-0.23-2.74-0.18-3.97-0.75c-0.67-0.31-1.26-0.78-1.92-1.1c-2.46-1.17-5.34,0.04-8.06,0.04
			c-1.79,0-3.57-0.54-5.36-0.44s-3.76,1.15-4.01,2.93c-0.07,0.5,0,1-0.03,1.51c-0.09,1.47-1.08,2.86-0.81,4.31
			c0.28,1.49,1.84,2.56,1.94,4.07c0.11,1.57-1.37,2.81-1.71,4.34c-0.57,2.52,2,4.95,1.44,7.47c-0.37,1.62-2,3.05-1.49,4.63
			c0.26,0.82,1.06,1.4,1.23,2.24c0.22,1.1-0.7,2.08-0.94,3.17c-0.47,2.13,1.7,4.19,1.19,6.31c-0.13,0.53-0.42,1.01-0.61,1.53
			c-0.38,1.01-0.34,2.1-0.18,3.15c0.11,0.72,0.05,1.44,0.15,2.15c0.2,1.44,2.85,2.03,4.05,1.95c2.05-0.12,3.58-2.17,3.83-4.21
			c0.04-0.34,0.06-0.69-0.05-1.01c-0.19-0.59-0.73-1.02-0.92-1.61c-0.4-1.25,0.91-2.39,1.06-3.69c0.11-0.92-0.36-1.79-0.61-2.67
			c-0.25-0.89-0.17-2.04,0.65-2.46c1.21-0.62,2.79,0.92,3.94,0.19c0.31-0.19,0.51-0.52,0.82-0.72c0.7-0.44,1.59-0.04,2.35,0.26
			c1.53,0.61,3.38,0.79,4.75-0.12c0.83-0.56,1.4-1.46,2.27-1.96c1.04-0.59,2.34-0.49,3.47-0.88c2.05-0.7,3.25-2.9,3.52-5.04
			c0.23-1.83-0.01-3.87,1.07-5.36c0.38-0.52,0.9-0.93,1.22-1.49c0.34-0.58,0.44-1.27,0.46-1.95
			C214.45,41.98,214.01,40.35,213.15,38.97z M206.74,44.48c-0.42,1.07-1.48,1.75-1.99,2.78c-0.48,0.97-0.41,2.12-0.82,3.12
			c-0.64,1.54-2.43,2.42-4.09,2.26c-0.73-0.07-1.46-0.31-2.19-0.25c-0.63,0.06-1.2,0.34-1.79,0.56c-1.59,0.59-3.34,0.74-5.01,0.44
			c-0.28-0.05-0.58-0.12-0.79-0.32c-0.25-0.23-0.33-0.57-0.41-0.9c-0.4-1.77,0.98-2.97,0.37-4.74c-0.27-0.8-0.67-1.61-0.54-2.45
			c0.18-1.16,1.34-2.05,1.33-3.22c0-0.7-0.43-1.32-0.79-1.93c-0.35-0.61-0.64-1.35-0.36-2c0.23-0.54,0.81-0.87,1.06-1.4
			c0.21-0.43,0.17-0.95,0.37-1.39c0.42-0.94,1.69-1.15,2.69-0.89c1,0.25,1.91,0.82,2.93,0.94c0.78,0.09,1.56-0.08,2.33-0.24
			c0.77-0.16,1.56-0.3,2.33-0.14c0.77,0.16,1.51,0.68,1.7,1.44c0.08,0.32,0.06,0.65,0.12,0.97c0.31,1.67,2.45,2.28,3.29,3.75
			c0.32,0.56,0.43,1.22,0.47,1.86C206.98,43.32,206.96,43.93,206.74,44.48z"/>
		<path fill="#F5AB9D" d="M219.98,58.15c0.25-0.86,0.68-1.7,0.57-2.59c-0.14-1.21-1.26-2.19-1.24-3.41c0.02-1.27,1.26-2.19,1.59-3.42
			c0.58-2.15-1.76-4.24-1.33-6.43c0.26-1.31,1.47-2.4,1.3-3.72c-0.15-1.14-1.33-2.01-1.25-3.15c0.05-0.67,0.52-1.23,0.69-1.88
			c0.23-0.91-0.16-1.85-0.23-2.78c-0.11-1.48,0.67-2.99,1.94-3.76c1.27-0.77,2.97-0.75,4.23,0.04c0.58,0.36,1.09,0.93,1.13,1.61
			c0.03,0.44-0.14,0.87-0.14,1.31c0,0.84,0.62,1.54,0.87,2.34c0.63,2-1.05,4.02-0.98,6.12c0.07,2.19,2.05,4.15,1.56,6.28
			c-0.14,0.62-0.48,1.17-0.74,1.75c-0.66,1.51-0.74,3.27-0.21,4.84c0.28,0.82,0.72,1.61,0.76,2.47c0.07,1.31-0.77,2.49-1.06,3.77
			c-0.21,0.92-0.12,1.9,0.25,2.77c0.47,1.11,1.39,2.15,1.19,3.33c-0.11,0.67-0.56,1.22-0.85,1.83c-0.35,0.76-0.43,1.64-0.23,2.45
			c0.22,0.9,0.79,1.81,0.51,2.69c-0.2,0.64-0.79,1.08-1.06,1.69c-0.3,0.71-0.13,1.58-0.55,2.23c-0.46,0.73-1.46,0.88-2.32,0.8
			c-1.99-0.17-4.1-1.48-4.31-3.46c-0.11-1.05,0.32-2.09,0.27-3.15c-0.04-1.02-0.48-1.96-0.4-2.99c0.06-0.71,0.38-1.37,0.44-2.08
			c0.08-0.84-0.34-1.59-0.51-2.4C219.66,60.23,219.69,59.15,219.98,58.15z"/>
		<path fill="#F5AB9D" d="M244.83,61.9c0.06-0.78,0.33-1.57,0.2-2.34c-0.24-1.45-1.78-2.48-1.81-3.95c-0.02-1.18,0.96-2.15,1.2-3.31
			c0.42-2.04-1.53-4.13-0.83-6.09c0.23-0.65,0.73-1.17,1-1.8c0.41-0.99,0.22-2.11,0.17-3.18c-0.06-1.07,0.11-2.29,0.97-2.92
			c0.48-0.35,1.12-0.47,1.53-0.91c0.49-0.53,0.47-1.35,0.77-2.01c0.39-0.86,1.34-1.39,2.28-1.47s1.89,0.22,2.74,0.64
			c1.04,0.52,2.06,1.34,2.26,2.48c0.11,0.63-0.04,1.28,0,1.91c0.07,1.08,0.76,2.09,1.73,2.56c0.97,0.47,2.19,0.38,3.08-0.22
			c0.3-0.2,0.57-0.46,0.92-0.53c0.47-0.1,0.96,0.17,1.42,0.03c0.62-0.19,0.79-0.98,0.84-1.63c0.13-1.44,0.22-3.01-0.62-4.18
			c-0.39-0.55-0.96-0.96-1.41-1.46c-1.32-1.48-1.67-3.77-3.32-4.87c-1.41-0.94-3.27-0.68-4.9-1.1c-1.23-0.32-2.4-1.05-3.67-0.97
			c-1.7,0.11-2.94,1.62-4.47,2.38c-0.74,0.37-1.55,0.56-2.29,0.93c-1.38,0.7-2.42,2.03-2.76,3.55c-0.15,0.65-0.17,1.32-0.38,1.95
			c-0.57,1.72-2.43,2.85-2.76,4.64c-0.22,1.21,0.32,2.45,0.15,3.66c-0.13,0.9-0.64,1.69-0.96,2.55c-0.52,1.4-0.51,2.99,0.04,4.38
			c0.41,1.03,1.1,1.97,1.22,3.07c0.16,1.53-0.85,3.01-0.71,4.54c0.12,1.25,0.99,2.34,1.1,3.59c0.07,0.76-0.16,1.51-0.18,2.27
			c-0.04,1.34,0.58,2.69,1.63,3.54c0.4,0.32,0.87,0.58,1.2,0.97c0.88,1.05,0.57,2.71,1.36,3.82c0.88,1.24,2.69,1.29,3.95,2.14
			c0.62,0.41,1.17,1.04,1.91,1.08c0.45,0.02,0.87-0.19,1.31-0.3c1.1-0.27,2.24,0.12,3.35,0.39c1.1,0.27,2.39,0.37,3.26-0.35
			c0.55-0.46,0.87-1.19,1.51-1.52c0.94-0.48,2.22,0.12,3.06-0.51c0.87-0.65,0.59-2.03,1.05-3.02c0.49-1.04,1.79-1.57,2.12-2.68
			c0.19-0.63,0-1.31,0.1-1.96c0.13-0.82,0.7-1.55,0.7-2.38c0.01-1.43-1.61-2.3-3.03-2.51c-0.95-0.14-2-0.1-2.78,0.47
			c-1.79,1.32-1.24,4.74-3.3,5.59c-0.64,0.27-1.39,0.18-2.05,0.41c-0.78,0.27-1.38,0.96-2.19,1.13c-1.12,0.24-2.2-0.6-2.86-1.54
			c-0.61-0.88-1.08-1.82-1.78-2.63C245.27,63.5,244.75,62.93,244.83,61.9z"/>
		<path fill="#F5AB9D" d="M301.51,57.38c0.16-1.34,1.06-2.55,1.04-3.9c-0.03-1.78-1.65-3.22-1.72-5c-0.06-1.56,1.11-2.96,1.13-4.53
			c0.01-0.92-0.38-1.8-0.53-2.71c-0.32-1.99,0.5-4.24-0.58-5.95c-0.84-1.34-2.53-1.81-3.82-2.72c-1.19-0.84-2.06-2.06-3.19-2.99
			c-1.39-1.15-3.17-1.82-4.97-1.87c-1.1-0.03-2.21,0.16-3.31,0.06c-1.24-0.12-2.42-0.62-3.66-0.74c-1.59-0.15-3.14,0.39-4.38,1.38
			c-0.44,0.35-0.98,0.54-1.37,0.96c-0.46,0.5-0.7,1.19-1.1,1.74c-0.76,1.05-2.11,1.47-3.12,2.28c-1.29,1.03-1.97,2.67-2.13,4.31
			c-0.08,0.88-0.02,1.77-0.22,2.63c-0.38,1.67-1.7,3.07-1.83,4.78c-0.11,1.38,0.59,2.71,0.59,4.1c0,2.09-1.55,4.1-0.98,6.1
			c0.31,1.1,1.22,1.96,1.54,3.06c0.66,2.21-1.15,4.84,0.11,6.77c0.54,0.83,1.53,1.28,2.09,2.1c0.81,1.21,0.54,2.99,1.56,4.02
			c0.9,0.91,2.42,0.84,3.48,1.56c0.74,0.51,1.18,1.36,1.86,1.96c0.59,0.52,1.36,0.83,2.14,0.87c0.87,0.04,1.74-0.25,2.61-0.19
			c0.83,0.06,1.59,0.42,2.38,0.66c1.31,0.4,2.89,0.38,3.87-0.57c0.42-0.41,0.69-0.95,1.16-1.29c1.38-0.99,3.62,0.27,4.9-0.84
			c0.96-0.83,0.7-2.43,1.44-3.46c0.81-1.14,2.55-1.23,3.45-2.3c0.92-1.09,0.62-2.72,0.97-4.1c0.2-0.8,0.63-1.53,0.77-2.35
			C301.91,59.95,301.36,58.66,301.51,57.38z M294.32,60.19c-0.45,1.19-1.83,2.03-1.79,3.3c0.01,0.46,0.22,0.9,0.17,1.35
			c-0.1,0.77-0.9,1.24-1.66,1.43c-0.75,0.18-1.57,0.22-2.22,0.64c-0.51,0.34-0.85,0.88-1.35,1.22c-0.91,0.63-2.17,0.48-3.19,0.06
			c-1.03-0.42-1.95-1.08-3-1.43c-1.05-0.35-2.23-0.4-3.17-0.99c-0.9-0.57-1.48-1.62-1.47-2.68c0.01-0.72,0.26-1.47-0.02-2.13
			c-0.25-0.6-0.88-0.96-1.22-1.52c-0.48-0.8-0.27-1.83,0.05-2.71c0.32-0.88,0.75-1.77,0.65-2.7c-0.09-0.85-0.61-1.61-0.78-2.45
			c-0.36-1.73,0.71-3.31,0.81-5c0.08-1.34-1.28-2.25-0.29-3.61c0.28-0.39,0.71-0.68,0.89-1.12c0.26-0.62,0-1.32-0.09-1.98
			c-0.16-1.25,0.37-2.53,1.26-3.41c0.9-0.88,2.13-1.37,3.39-1.48c1.12-0.1,2.28,0.08,3.36-0.24c0.4-0.12,0.78-0.31,1.18-0.4
			c1.27-0.3,2.59,0.35,3.55,1.22c0.97,0.87,1.71,1.97,2.67,2.86c0.89,0.83,2.02,1.57,2.28,2.76c0.31,1.44-0.84,2.81-0.88,4.28
			c-0.04,1.39,0.91,2.65,0.93,4.04c0.02,1.63-1.23,3.06-1.26,4.68C293.1,56.25,295.06,58.23,294.32,60.19z"/>
	</g>
</g>
</svg>
